<svg xmlns="http://www.w3.org/2000/svg" xmlns:xlink="http://www.w3.org/1999/xlink" viewBox="0,0,256,256" width="48px" height="48px"><g fill="#fcc419" fill-rule="nonzero" stroke="none" stroke-width="1" stroke-linecap="butt" stroke-linejoin="miter" stroke-miterlimit="10" stroke-dasharray="" stroke-dashoffset="0" font-family="none" font-weight="none" font-size="none" text-anchor="none" style="mix-blend-mode: normal"><g transform="scale(5.33333,5.33333)"><path d="M24.67383,4.00977c-0.35794,-0.04158 -0.72284,0.04781 -1.02734,0.25781c-0.405,0.279 -0.64648,0.74042 -0.64648,1.23242v25.65234c-1.80528,-1.32942 -4.27621,-2.15234 -7,-2.15234c-5.514,0 -10,3.365 -10,7.5c0,4.135 4.486,7.5 10,7.5c5.514,0 10,-3.365 10,-7.5v-19.83594l13.97266,5.24023c0.46,0.173 0.97486,0.10912 1.38086,-0.17187c0.405,-0.279 0.64648,-0.74042 0.64648,-1.23242v-5.53516c0,-2.694 -1.6938,-5.13894 -4.2168,-6.08594l-12.75586,-4.7832c-0.115,-0.04325 -0.2342,-0.07208 -0.35352,-0.08594z"></path></g></g></svg>